<svg xmlns="http://www.w3.org/2000/svg" xmlns:xlink="http://www.w3.org/1999/xlink" xmlns:lucid="lucid" width="1108.93" height="2180"><g transform="translate(-359.981664 320)" lucid:page-tab-id="9YQ.vi_dQKO0"><path d="M0-1258.84h1870.87v3840.5H0z" fill="#fff"/><path d="M706.34 448.54l-12.4-3.46-11.72-13.33 13.08 1.08 11.04 15.7z" fill="#b8852e"/><path d="M706.35 448.54L715.2 430l-8.28-1.16-11.63 4 11.05 15.7z" fill="#d9a741"/><path d="M677.68 439.76l-6.97-1.96-7.66-8.74 8.15 1.28 6.48 9.42z" fill="#b8852e"/><path d="M677.67 439.76l5-10.44-4.66-.66-6.82 1.67 6.5 9.43z" fill="#d9a741"/><path d="M660 429.32l7.14 1.47L702 400.5l-34.86-33.87-7.14 3.6v59.1z" fill="#876929"/><path d="M694.64 372.6v55.63l-27.52 2.56v-64.17l27.52 5.97z" fill="#d9a741"/><path d="M675.9 432.68l12.23 2.46 33.7-39-33.7-40.1-12.22 6.16v70.48z" fill="#876929"/><path d="M757.85 378.1v48.1l-69.72 8.94v-79.1l69.72 22.06z" fill="#d9a741"/><path d="M745.22 460l-17.6-4.93-16.66-18.96 18.57 1.56 15.7 22.33z" fill="#b8852e"/><path d="M745.22 460l12.62-26.34-11.8-1.68-16.5 5.7 15.68 22.3z" fill="#d9a741"/><path d="M702 437.77l17.95 3.44 24.37-50.6-24.38-50.6-17.94 9.1v88.67z" fill="#876929"/><path d="M719.96 441.2L780 429.27v-59.3L719.95 340v101.2z" fill="#d9a741"/><use xlink:href="#a" transform="matrix(1,0,0,1,660,460) translate(19.29012345679012 17.77777777777778)"/><use xlink:href="#b" transform="matrix(1,0,0,1,660,460) translate(37.19135802469136 44.44444444444444)"/><path d="M961.33 256.2v56.3l49.5 24.83 49.5-24.84v-14.05l-42.07-5.28V261.5l42.07-5.3v-14.03l-49.5-24.84-49.5 24.84v14.04z" fill="#876929"/><path d="M961.35 298.42l49.47 14.9v24l-49.47-24.82v-14.08z" fill="#876929"/><path d="M967.65 315.65l-6.32-3.14v-70.35l6.33-3.15v76.65z" fill="#876929"/><path d="M1018.25 293.2l-50.6 7.1v-45.97l50.6 7.17v31.7zM1060.33 256.25l-49.5-14.94v-23.97l49.5 24.87v14.05zM1060.3 298.43l-49.47 14.9v24l49.47-24.86v-14.04z" fill="#d9a741"/><path d="M992.6 290.2l18.22 2.28v-30.44l-18.22 2.32v25.83zM974.23 287.92l11.83 1.47v-24.2l-11.83 1.5v21.22z" fill="#876929"/><path d="M967.66 254.32l43.18-13 49.48 14.92-42.07 5.24-50.6-7.16z" fill="#624a1e"/><path d="M967.64 300.3l43.18 13.03 49.47-14.9-42.07-5.26-50.6 7.14z" fill="#fad791"/><path d="M1060.3 286.2l-49.47 6.28v-30.44l49.47 6.33v17.84z" fill="#d9a741"/><use xlink:href="#a" transform="matrix(1,0,0,1,961.3333333333333,337.33333333333337) translate(8.79012345679012 17.77777777777778)"/><use xlink:href="#c" transform="matrix(1,0,0,1,961.3333333333333,337.33333333333337) translate(26.043209876543216 44.44444444444444)"/><path d="M960 538.88v56.28l49.5 24.84 49.5-24.84v-14.04l-42.08-5.28v-31.68l42.08-5.28v-14.04L1009.5 500 960 524.84v14.04z" fill="#876929"/><path d="M960.02 581.08l49.47 14.9v24L960 595.2v-14.1z" fill="#876929"/><path d="M966.3 598.32l-6.3-3.15V524.8l6.33-3.13-.02 76.65z" fill="#876929"/><path d="M1016.9 575.85l-50.6 7.13V537l50.62 7.17v31.68zM1059 538.92l-49.5-14.95V500l49.5 24.87v14.05zM1058.97 581.1L1009.5 596v24l49.47-24.86V581.1z" fill="#d9a741"/><path d="M991.26 572.86l18.23 2.28V544.7l-18.24 2.32v25.84zM972.9 570.6l11.83 1.46v-24.18l-11.83 1.5v21.2z" fill="#876929"/><path d="M966.33 537l43.18-13 49.5 14.9-42.08 5.25-50.6-7.16z" fill="#624a1e"/><path d="M966.3 582.98L1009.5 596l49.48-14.9-42.07-5.26-50.6 7.14z" fill="#fad791"/><path d="M1058.97 568.88l-49.47 6.26V544.7l49.47 6.34v17.84z" fill="#d9a741"/><use xlink:href="#a" transform="matrix(1,0,0,1,960,620) translate(8.79012345679012 17.77777777777778)"/><use xlink:href="#c" transform="matrix(1,0,0,1,960,620) translate(26.043209876543216 44.44444444444444)"/><path d="M780.5 404.44h84.16a6 6 0 0 0 6-6v-105.1a6 6 0 0 1 6-6h68.3" stroke="#3a414a" fill="none"/><path d="M780.5 404.92h-.5v-.96h.5z" stroke="#3a414a" stroke-width=".05" fill="#3a414a"/><path d="M959.7 287.33l-14.25 4.64v-9.27z" stroke="#3a414a" fill="#3a414a"/><path d="M780.5 404.44H864a6 6 0 0 1 6 6V564a6 6 0 0 0 6 6h67.62" stroke="#3a414a" fill="none"/><path d="M780.5 404.92h-.5v-.96h.5z" stroke="#3a414a" stroke-width=".05" fill="#3a414a"/><path d="M958.38 570l-14.26 4.63v-9.26z" stroke="#3a414a" fill="#3a414a"/><g filter="url(#d)" stroke="#fff" stroke-opacity="0"><path d="M1262.28 225.1h124.44v124.46h-124.44z" fill="#d86613"/><path d="M1384.48 227.35v119.97h-119.96V227.35h119.96m4.52-4.52h-129v129h129v-129z" fill="#fff"/><path d="M1363.2 271.4v-3.04h-6.07v-6.6c0-3.03-2.5-5.54-5.54-5.54h-6.6v-6.07h-3.05v6.07h-6.07v-6.07h-3.03v6.07h-6.07v-6.07h-3.04v6.07h-6.07v-6.07h-3.04v6.07h-6.07v-6.07h-3.03v6.07h-6.6c-3.04 0-5.54 2.5-5.54 5.54v6.6h-6.08v3.04h6.07v6.07h-6.08v3.03h6.07v6.07h-6.08v3.04h6.07v6.08h-6.08v3.04h6.07v6.07h-6.08v3.02h6.07v6.6c0 3.04 2.5 5.54 5.53 5.54h6.6v6.07h3.04v-6.07h6.07v6.07h3.03v-6.07h6.07v6.07h3.04v-6.07h6.07v6.07h3.03v-6.07h6.07v6.07h3.04v-6.07h6.6c3.03 0 5.53-2.5 5.53-5.54v-6.6h6.07v-3.03h-6.07v-6.08h6.07v-3.04h-6.07v-6.07h6.07v-3.03h-6.07v-6.07h6.07v-3.03h-6.07v-6.07zm-9.1 43.02c0 1.37-1.14 2.5-2.5 2.5h-52.67c-1.37 0-2.5-1.13-2.5-2.5v-52.66c0-1.37 1.13-2.5 2.5-2.5h52.66c1.36 0 2.5 1.13 2.5 2.5z" fill="#fff"/><path d="M1339.87 269.88h-29.22c-1.96 0-3.6 1.64-3.6 3.6v29.22c0 1.97 1.64 3.6 3.6 3.6h29.22c1.96 0 3.6-1.63 3.6-3.6v-29.2c0-1.98-1.64-3.62-3.6-3.62zm.58 32.82c0 .33-.26.58-.6.58h.02-29.22c-.33 0-.58-.25-.58-.58v-29.2c0-.34.26-.6.58-.6h29.22c.32 0 .58.26.58.6z" fill="#fff"/></g><path d="M1200 166a6 6 0 0 1 6-6h228a6 6 0 0 1 6 6v48a6 6 0 0 1-6 6h-228a6 6 0 0 1-6-6z" fill="none"/><use xlink:href="#e" transform="matrix(1,0,0,1,1200,160) translate(33.70370370370371 34.44444444444444)"/><use xlink:href="#f" transform="matrix(1,0,0,1,1200,160) translate(96.54320987654322 34.44444444444444)"/><path d="M1051.93 287.33h191.7" stroke="#3a414a" fill="none"/><path d="M1051.94 287.8h-3.5v-.1l3.5-.43z" stroke="#3a414a" stroke-width=".05" fill="#3a414a"/><path d="M1258.38 287.33l-14.26 4.64v-9.27z" stroke="#3a414a" fill="#3a414a"/><g filter="url(#d)" stroke="#fff" stroke-opacity="0"><path d="M1282.28 507.78h124.44v124.44h-124.44z" fill="#d86613"/><path d="M1404.48 510v120h-119.96V510h119.96m4.52-4.5h-129v129h129v-129z" fill="#fff"/><path d="M1383.2 554.07v-3.04h-6.07v-6.6c0-3.04-2.5-5.54-5.54-5.54h-6.6v-6.08h-3.05v6.07h-6.07v-6.08h-3.03v6.07h-6.07v-6.08h-3.04v6.07h-6.07v-6.08h-3.04v6.07h-6.07v-6.08h-3.03v6.07h-6.6c-3.04 0-5.54 2.5-5.54 5.53v6.6h-6.08v3.04h6.07v6.06h-6.08v3.04h6.07v6.07h-6.08v3.04h6.07v6.07h-6.08v3.03h6.07v6.07h-6.08v3.04h6.07v6.6c0 3.02 2.5 5.53 5.53 5.53h6.6v6.07h3.04v-6.07h6.07v6.07h3.03v-6.07h6.07v6.07h3.04v-6.07h6.07v6.07h3.03v-6.07h6.07v6.07h3.04v-6.07h6.6c3.03 0 5.53-2.5 5.53-5.54v-6.6h6.07v-3.05h-6.07v-6.07h6.07v-3.03h-6.07v-6.07h6.07v-3.04h-6.07v-6.07h6.07v-3.03h-6.07v-6.07zm-9.1 43.02c0 1.36-1.14 2.5-2.5 2.5h-52.67c-1.37 0-2.5-1.14-2.5-2.5v-52.67c0-1.37 1.13-2.5 2.5-2.5h52.66c1.36 0 2.5 1.13 2.5 2.5z" fill="#fff"/><path d="M1359.87 552.55h-29.22c-1.96 0-3.6 1.64-3.6 3.6v29.22c0 1.96 1.64 3.6 3.6 3.6h29.22c1.96 0 3.6-1.64 3.6-3.6v-29.22c0-1.96-1.64-3.6-3.6-3.6zm.58 32.82c0 .32-.26.58-.6.58h.02-29.22c-.33 0-.58-.26-.58-.6v-29.2c0-.32.26-.58.58-.58h29.22c.32 0 .58.25.58.58z" fill="#fff"/></g><path d="M1208.9 446a6 6 0 0 1 6-6h228a6 6 0 0 1 6 6v48a6 6 0 0 1-6 6h-228a6 6 0 0 1-6-6z" fill="none"/><use xlink:href="#e" transform="matrix(1,0,0,1,1208.907314094515,440) translate(38.14814814814815 34.44444444444444)"/><use xlink:href="#g" transform="matrix(1,0,0,1,1208.907314094515,440) translate(100.98765432098764 34.44444444444444)"/><path d="M1050.6 570h213.02" stroke="#3a414a" fill="none"/><path d="M1050.6 570.48h-3.5v-.1l3.5-.45z" stroke="#3a414a" stroke-width=".05" fill="#3a414a"/><path d="M1278.38 570l-14.26 4.63v-9.26z" stroke="#3a414a" fill="#3a414a"/><path d="M467.76 375.68c-11.88-15.6-29.88-23.52-47.64-23.52-12.72 0-25.8 4.08-36.6 12.36-26.28 20.4-31.44 57.84-11.04 84.12 11.76 15.6 29.52 23.52 47.64 23.52 12.72 0 25.68-4.08 36.48-12.36 26.04-20.04 31.2-57.84 11.16-84.12zm-47.88-15.96c12 0 23.76 4.08 33.24 12-7.92-1.2-20.64-.84-34.92 6.72-4.8-5.04-9.48-10.2-14.64-15.96 5.4-1.68 10.92-2.76 16.32-2.76zm-42.6 82.32c-12.72-18.12-12.36-41.88-.36-59.4-1.32 5.04-1.56 12.36 2.16 20.88-4.08 5.4-4.44 13.32 0 19.08.36.36.72.96 1.32 1.2-2.28 6.48-2.76 12.84-3.12 18.24zm5.4-66.36c1.92-1.92 3.48-3.6 5.64-5.04 2.88-2.28 5.76-3.84 9-5.4 3.48 6 8.52 12 13.92 17.76-4.8 3.12-9.48 7.32-14.64 12.72-.72.6-1.2 1.2-1.92 1.92-2.88-.72-5.76-.36-8.64.6-4.32-9.84-4.32-18.12-3.36-22.56zm69.24 78c-9.48 7.32-20.64 10.8-31.8 10.8-12 0-23.76-4.08-33.24-11.76-.36-5.76 0-14.28 3.48-23.76 2.52.24 4.8-.36 7.32-1.32 1.32 1.32 2.88 2.52 4.2 3.48 5.04 4.2 10.08 7.32 15.12 9.96-.24 2.52.36 5.04 2.04 7.32 3.48 4.44 10.08 5.28 14.64 1.92.84-.72 1.56-1.68 2.16-2.52 7.92 1.92 14.88 2.16 20.4 2.16-1.44.96-2.76 2.52-4.32 3.72zm11.4-12.36c-3.12.72-12.72 1.92-25.68-1.92-.36-1.56-.96-2.88-2.04-4.08-3.12-4.44-9.12-5.4-13.92-2.52-4.44-2.52-9.12-5.4-14.28-9.24-.96-.6-1.92-1.56-2.88-2.16 2.88-4.8 3.24-10.8.72-15.84.6-.72 1.2-1.32 1.92-2.04 4.8-4.44 9.12-8.16 13.56-11.04 6.72 6 13.32 11.76 20.04 16.8-1.56 3.84-1.56 8.28 1.32 11.52 3.72 5.04 10.68 5.64 15.84 2.16l.72-.72c4.8 3.24 8.28 5.76 10.56 7.32-1.68 4.44-3.72 8.4-5.88 11.76zm-1.92-22.8c1.32-3.6.96-7.68-1.56-10.8-3.6-4.44-9.6-5.76-14.64-2.88-5.4-4.8-11.16-10.2-17.52-16.44 18.36-9.96 31.44-9 32.76-9 .24.36.24.72.6.72 10.2 13.32 13.08 29.88 9 45.12-1.68-1.32-4.8-3.6-8.64-6.72z" stroke="#000" stroke-opacity="0" fill="#0078d7"/><use xlink:href="#h" transform="matrix(1,0,0,1,330,481.1585785730573) translate(53.2 14.4)"/><use xlink:href="#i" transform="matrix(1,0,0,1,330,481.1585785730573) translate(94.8 14.4)"/><path d="M480.46 410h163.16" stroke="#3a414a" fill="none"/><path d="M480.47 410.48h-.5v-.68l-.03-.28h.53z" stroke="#3a414a" stroke-width=".05" fill="#3a414a"/><path d="M658.38 410l-14.26 4.63v-9.26z" stroke="#3a414a" fill="#3a414a"/><path d="M706.34 1028.54l-12.4-3.46-11.72-13.33 13.08 1.08 11.04 15.7z" fill="#b8852e"/><path d="M706.35 1028.54l8.86-18.54-8.28-1.16-11.63 4 11.05 15.7z" fill="#d9a741"/><path d="M677.68 1019.76l-6.97-1.96-7.66-8.74 8.15 1.28 6.48 9.42z" fill="#b8852e"/><path d="M677.67 1019.76l5-10.44-4.66-.66-6.82 1.67 6.5 9.43z" fill="#d9a741"/><path d="M660 1009.32l7.14 1.47L702 980.5l-34.86-33.87-7.14 3.6v59.1z" fill="#876929"/><path d="M694.64 952.6v55.63l-27.52 2.56v-64.17l27.52 5.97z" fill="#d9a741"/><path d="M675.9 1012.68l12.23 2.46 33.7-39-33.7-40.1-12.22 6.16v70.48z" fill="#876929"/><path d="M757.85 958.1v48.1l-69.72 8.94v-79.1l69.72 22.06z" fill="#d9a741"/><path d="M745.22 1040l-17.6-4.93-16.66-18.96 18.57 1.56 15.7 22.33z" fill="#b8852e"/><path d="M745.22 1040l12.62-26.34-11.8-1.68-16.5 5.7 15.68 22.3z" fill="#d9a741"/><path d="M702 1017.77l17.95 3.44 24.37-50.6-24.38-50.6-17.94 9.1v88.67z" fill="#876929"/><path d="M719.96 1021.2l60.03-11.94v-59.3L719.95 920v101.2z" fill="#d9a741"/><use xlink:href="#a" transform="matrix(1,0,0,1,660,1040) translate(19.29012345679012 17.77777777777778)"/><use xlink:href="#b" transform="matrix(1,0,0,1,660,1040) translate(37.19135802469136 44.44444444444444)"/><path d="M981.33 836.2v56.3l49.5 24.83 49.5-24.84v-14.05l-42.07-5.28V841.5l42.07-5.3v-14.03l-49.5-24.84-49.5 24.84v14.04z" fill="#876929"/><path d="M981.35 878.42l49.47 14.9v24l-49.47-24.82v-14.08z" fill="#876929"/><path d="M987.65 895.65l-6.32-3.14v-70.35l6.33-3.14v76.65z" fill="#876929"/><path d="M1038.25 873.2l-50.6 7.1v-45.97l50.6 7.17v31.7zM1080.33 836.25l-49.5-14.94v-23.97l49.5 24.87v14.05zM1080.3 878.43l-49.47 14.9v24l49.47-24.86v-14.04z" fill="#d9a741"/><path d="M1012.6 870.2l18.22 2.28v-30.44l-18.22 2.32v25.84zM994.23 867.92l11.83 1.47v-24.2l-11.83 1.5v21.22z" fill="#876929"/><path d="M987.66 834.33l43.18-13 49.48 14.9-42.07 5.25-50.6-7.15z" fill="#624a1e"/><path d="M987.64 880.3l43.18 13.03 49.47-14.9-42.07-5.26-50.6 7.14z" fill="#fad791"/><path d="M1080.3 866.2l-49.47 6.28v-30.44l49.47 6.34v17.83z" fill="#d9a741"/><use xlink:href="#a" transform="matrix(1,0,0,1,981.3333333333333,917.3333333333334) translate(8.79012345679012 17.77777777777778)"/><use xlink:href="#c" transform="matrix(1,0,0,1,981.3333333333333,917.3333333333334) translate(26.043209876543216 44.44444444444444)"/><path d="M980 1118.88v56.28l49.5 24.84 49.5-24.84v-14.04l-42.08-5.28v-31.68l42.08-5.28v-14.04l-49.5-24.84-49.5 24.84v14.04z" fill="#876929"/><path d="M980.02 1161.08l49.47 14.9v24L980 1175.2v-14.1z" fill="#876929"/><path d="M986.3 1178.32l-6.3-3.15v-70.36l6.33-3.13-.02 76.65z" fill="#876929"/><path d="M1036.9 1155.85l-50.6 7.13V1117l50.62 7.17v31.68zM1079 1118.92l-49.5-14.95V1080l49.5 24.87v14.05zM1078.97 1161.1l-49.47 14.9v24l49.47-24.86v-14.04z" fill="#d9a741"/><path d="M1011.26 1152.86l18.23 2.28v-30.43l-18.24 2.33v25.83zM992.9 1150.6l11.83 1.46v-24.18l-11.83 1.5v21.2z" fill="#876929"/><path d="M986.33 1117l43.18-13 49.5 14.9-42.08 5.25-50.6-7.16z" fill="#624a1e"/><path d="M986.3 1162.98l43.18 13.02 49.48-14.9-42.07-5.26-50.6 7.14z" fill="#fad791"/><path d="M1078.97 1148.88l-49.47 6.26v-30.43l49.47 6.34v17.84z" fill="#d9a741"/><use xlink:href="#a" transform="matrix(1,0,0,1,980,1200) translate(8.79012345679012 17.77777777777778)"/><use xlink:href="#c" transform="matrix(1,0,0,1,980,1200) translate(26.043209876543216 44.44444444444444)"/><path d="M780.5 984.44h94.16a6 6 0 0 0 6-6v-105.1a6 6 0 0 1 6-6h78.3" stroke="#3a414a" fill="none"/><path d="M780.5 984.9h-.5V984h.5z" stroke="#3a414a" stroke-width=".05" fill="#3a414a"/><path d="M979.7 867.33l-14.25 4.64v-9.27z" stroke="#3a414a" fill="#3a414a"/><path d="M780.5 984.44H874a6 6 0 0 1 6 6V1144a6 6 0 0 0 6 6h77.62" stroke="#3a414a" fill="none"/><path d="M780.5 984.9h-.5V984h.5z" stroke="#3a414a" stroke-width=".05" fill="#3a414a"/><path d="M978.38 1150l-14.26 4.63v-9.27z" stroke="#3a414a" fill="#3a414a"/><g filter="url(#d)" stroke="#fff" stroke-opacity="0"><path d="M1282.28 805.1h124.44v124.46h-124.44z" fill="#d86613"/><path d="M1404.48 807.35v119.97h-119.96V807.35h119.96m4.52-4.52h-129v129h129v-129z" fill="#fff"/><path d="M1383.2 851.4v-3.04h-6.07v-6.6c0-3.03-2.5-5.54-5.54-5.54h-6.6v-6.07h-3.05v6.07h-6.07v-6.07h-3.03v6.07h-6.07v-6.07h-3.04v6.07h-6.07v-6.07h-3.04v6.07h-6.07v-6.07h-3.03v6.07h-6.6c-3.04 0-5.54 2.5-5.54 5.54v6.6h-6.08v3.04h6.07v6.07h-6.08v3.03h6.07v6.08h-6.08v3.03h6.07v6.08h-6.08v3.04h6.07v6.07h-6.08v3.02h6.07v6.6c0 3.04 2.5 5.54 5.53 5.54h6.6v6.07h3.04v-6.07h6.07v6.07h3.03v-6.07h6.07v6.07h3.04v-6.07h6.07v6.07h3.03v-6.07h6.07v6.07h3.04v-6.07h6.6c3.03 0 5.53-2.5 5.53-5.54v-6.6h6.07v-3.03h-6.07v-6.08h6.07v-3.04h-6.07v-6.07h6.07v-3.02h-6.07v-6.08h6.07v-3.03h-6.07v-6.07zm-9.1 43.02c0 1.37-1.14 2.5-2.5 2.5h-52.67c-1.37 0-2.5-1.13-2.5-2.5v-52.66c0-1.37 1.13-2.5 2.5-2.5h52.66c1.36 0 2.5 1.13 2.5 2.5z" fill="#fff"/><path d="M1359.87 849.88h-29.22c-1.96 0-3.6 1.64-3.6 3.6v29.22c0 1.96 1.64 3.6 3.6 3.6h29.22c1.96 0 3.6-1.63 3.6-3.6v-29.2c0-1.98-1.64-3.62-3.6-3.62zm.58 32.82c0 .33-.26.58-.6.58h.02-29.22c-.33 0-.58-.25-.58-.58v-29.2c0-.34.26-.6.58-.6h29.22c.32 0 .58.26.58.6z" fill="#fff"/></g><path d="M1220 746a6 6 0 0 1 6-6h228a6 6 0 0 1 6 6v48a6 6 0 0 1-6 6h-228a6 6 0 0 1-6-6z" fill="none"/><use xlink:href="#e" transform="matrix(1,0,0,1,1220,740) translate(33.70370370370371 34.44444444444444)"/><use xlink:href="#f" transform="matrix(1,0,0,1,1220,740) translate(96.54320987654322 34.44444444444444)"/><path d="M1071.93 867.33h191.7" stroke="#3a414a" fill="none"/><path d="M1071.94 867.8h-3.5v-.1l3.5-.43z" stroke="#3a414a" stroke-width=".05" fill="#3a414a"/><path d="M1278.38 867.33l-14.26 4.64v-9.27z" stroke="#3a414a" fill="#3a414a"/><g filter="url(#d)" stroke="#fff" stroke-opacity="0"><path d="M1302.28 1087.78h124.44v124.44h-124.44z" fill="#d86613"/><path d="M1424.48 1090.02v119.96h-119.96v-119.96h119.96m4.52-4.52h-129v129h129v-129z" fill="#fff"/><path d="M1403.2 1134.07v-3.04h-6.07v-6.6c0-3.04-2.5-5.54-5.54-5.54h-6.6v-6.08h-3.05v6.07h-6.07v-6.08h-3.03v6.07h-6.07v-6.08h-3.04v6.07h-6.07v-6.08h-3.04v6.07h-6.07v-6.08h-3.03v6.07h-6.6c-3.04 0-5.54 2.5-5.54 5.53v6.6h-6.08v3.04h6.07v6.07h-6.08v3.03h6.07v6.07h-6.08v3.04h6.07v6.07h-6.08v3.03h6.07v6.07h-6.08v3.04h6.07v6.6c0 3.03 2.5 5.53 5.53 5.53h6.6v6.07h3.04v-6.07h6.07v6.07h3.03v-6.07h6.07v6.07h3.04v-6.07h6.07v6.07h3.03v-6.07h6.07v6.07h3.04v-6.07h6.6c3.03 0 5.53-2.5 5.53-5.54v-6.6h6.07v-3.05h-6.07v-6.07h6.07v-3.03h-6.07v-6.07h6.07v-3.04h-6.07v-6.07h6.07v-3.04h-6.07v-6.07zm-9.1 43.02c0 1.36-1.14 2.5-2.5 2.5h-52.67c-1.37 0-2.5-1.14-2.5-2.5v-52.67c0-1.37 1.13-2.5 2.5-2.5h52.66c1.36 0 2.5 1.13 2.5 2.5z" fill="#fff"/><path d="M1379.87 1132.55h-29.22c-1.96 0-3.6 1.64-3.6 3.6v29.22c0 1.96 1.64 3.6 3.6 3.6h29.22c1.96 0 3.6-1.64 3.6-3.6v-29.22c0-1.96-1.64-3.6-3.6-3.6zm.58 32.82c0 .32-.26.58-.6.58h.02-29.22c-.33 0-.58-.26-.58-.6v.02-29.22c0-.33.26-.58.58-.58h29.22c.32 0 .58.26.58.58z" fill="#fff"/></g><path d="M1228.9 1026a6 6 0 0 1 6-6h228a6 6 0 0 1 6 6v48a6 6 0 0 1-6 6h-228a6 6 0 0 1-6-6z" fill="none"/><use xlink:href="#e" transform="matrix(1,0,0,1,1228.907314094515,1020) translate(38.14814814814815 34.44444444444444)"/><use xlink:href="#g" transform="matrix(1,0,0,1,1228.907314094515,1020) translate(100.98765432098764 34.44444444444444)"/><path d="M1070.6 1150h213.02" stroke="#3a414a" fill="none"/><path d="M1070.6 1150.47h-3.5v-.1l3.5-.43z" stroke="#3a414a" stroke-width=".05" fill="#3a414a"/><path d="M1298.38 1150l-14.26 4.63v-9.27z" stroke="#3a414a" fill="#3a414a"/><path d="M466.72 990h176.9" stroke="#3a414a" fill="none"/><path d="M466.73 990.48h-.62l.23-.96h.4z" stroke="#3a414a" stroke-width=".05" fill="#3a414a"/><path d="M658.38 990l-14.26 4.63v-9.26z" stroke="#3a414a" fill="#3a414a"/><path d="M418 925.42l57.98 8.62v5.1c0 7.53-25.98 13.63-58 13.63-32 0-57.98-6.1-57.98-13.64v-5.53z" fill="#8c3123"/><path d="M418.02 962.13c24.2 0 44.93-3.53 53.58-8.5l2.88-4.78 1.15-4.4v5.45l-19 81c0 5.08-17.3 9.1-38.6 9.1-21.33 0-38.6-4.02-38.6-9.1l-19.02-81v-5.35l4.38 9.27c8.76 4.87 29.27 8.3 53.24 8.3z" fill="#8c3123"/><path d="M418 920c32 0 58 6.12 58 13.62 0 7.5-26 13.57-58 13.57s-58-6.02-58-13.58c0-7.56 26-13.62 58-13.62z" fill="#e05243"/><path d="M418 956.6c29.84 0 54.4-5.2 57.62-12.06l-19.02 81c0 5.05-17.3 9.1-38.6 9.1-21.33 0-38.6-4.05-38.6-9.1l-19.03-81c3.23 6.85 27.77 12.07 57.62 12.07z" fill="#e05243"/><path d="M404.35 964.38h25.1v24.96h-25.1v-24.96zM396.75 998.17c6.84 0 12.4 5.5 12.4 12.3 0 6.8-5.56 12.3-12.4 12.3-6.83 0-12.38-5.5-12.38-12.3 0-6.8 5.55-12.3 12.38-12.3zM448.8 1022.2H424l12.4-22.94 12.4 22.94z" fill="#fff"/><use xlink:href="#j" transform="matrix(1,0,0,1,360,1040) translate(14.790123456790127 17.77777777777778)"/><use xlink:href="#k" transform="matrix(1,0,0,1,360,1040) translate(44.41975308641976 17.77777777777778)"/><path d="M715.25 1588.54l-12.4-3.46-11.72-13.33 13.07 1.08 11.05 15.7z" fill="#b8852e"/><path d="M715.25 1588.54l8.87-18.54-8.3-1.16-11.62 4 11.05 15.7z" fill="#d9a741"/><path d="M686.58 1579.76l-6.97-1.96-7.66-8.74 8.16 1.28 6.48 9.42z" fill="#b8852e"/><path d="M686.58 1579.76l5-10.44-4.67-.66-6.8 1.67 6.48 9.43z" fill="#d9a741"/><path d="M668.9 1569.32l7.15 1.47 34.86-30.3-34.85-33.87-7.14 3.6v59.1z" fill="#876929"/><path d="M703.55 1512.6v55.63l-27.53 2.56v-64.17l27.53 5.96z" fill="#d9a741"/><path d="M684.82 1572.68l12.2 2.46 33.72-39-33.7-40.1-12.22 6.16v70.48z" fill="#876929"/><path d="M766.75 1518.1v48.1l-69.72 8.94v-79.1l69.73 22.06z" fill="#d9a741"/><path d="M754.13 1600l-17.6-4.93-16.66-18.96 18.57 1.56 15.7 22.33z" fill="#b8852e"/><path d="M754.12 1600l12.62-26.34-11.8-1.68-16.5 5.7 15.68 22.3z" fill="#d9a741"/><path d="M710.9 1577.77l17.95 3.44 24.38-50.6-24.38-50.6-17.94 9.1v88.67z" fill="#876929"/><path d="M728.87 1581.2l60.02-11.93v-59.3L728.87 1480v101.2z" fill="#d9a741"/><use xlink:href="#a" transform="matrix(1,0,0,1,668.907314094515,1600) translate(19.29012345679012 17.77777777777778)"/><use xlink:href="#b" transform="matrix(1,0,0,1,668.907314094515,1600) translate(37.19135802469136 44.44444444444444)"/><path d="M476.67 1515.68c-11.88-15.6-29.88-23.52-47.64-23.52-12.72 0-25.8 4.08-36.6 12.36-26.28 20.4-31.44 57.84-11.04 84.12 11.75 15.6 29.5 23.52 47.63 23.52 12.72 0 25.68-4.08 36.48-12.36 26.05-20.04 31.2-57.84 11.17-84.12zm-47.88-15.96c12 0 23.75 4.08 33.23 12-7.92-1.2-20.64-.84-34.92 6.72-4.8-5.04-9.47-10.2-14.63-15.96 5.4-1.68 10.92-2.76 16.32-2.76zm-42.6 82.32c-12.73-18.12-12.37-41.88-.37-59.4-1.32 5.04-1.56 12.36 2.16 20.88-4.1 5.4-4.45 13.32 0 19.08.35.36.7.96 1.3 1.2-2.27 6.48-2.75 12.84-3.1 18.24zm5.4-66.36c1.9-1.92 3.47-3.6 5.63-5.04 2.88-2.28 5.76-3.84 9-5.4 3.48 6 8.52 12 13.92 17.76-4.8 3.12-9.48 7.32-14.64 12.72-.7.6-1.2 1.2-1.9 1.92-2.9-.72-5.77-.36-8.65.6-4.32-9.84-4.32-18.12-3.36-22.56zm69.23 78c-9.48 7.32-20.64 10.8-31.8 10.8-12 0-23.76-4.08-33.24-11.76-.37-5.76 0-14.28 3.47-23.76 2.52.24 4.8-.36 7.32-1.32 1.3 1.32 2.87 2.52 4.2 3.48 5.03 4.2 10.07 7.32 15.1 9.96-.23 2.52.37 5.04 2.05 7.32 3.48 4.44 10.08 5.28 14.64 1.92.83-.72 1.55-1.68 2.15-2.52 7.92 1.92 14.88 2.16 20.4 2.16-1.44.96-2.76 2.52-4.32 3.72zm11.4-12.36c-3.12.72-12.72 1.92-25.68-1.92-.36-1.56-.96-2.88-2.04-4.08-3.1-4.44-9.1-5.4-13.9-2.52-4.45-2.52-9.13-5.4-14.3-9.24-.95-.6-1.9-1.56-2.87-2.16 2.88-4.8 3.24-10.8.72-15.84.6-.72 1.2-1.32 1.92-2.04 4.8-4.44 9.12-8.16 13.56-11.04 6.72 6 13.32 11.76 20.04 16.8-1.56 3.84-1.56 8.28 1.32 11.52 3.7 5.04 10.67 5.64 15.83 2.16l.72-.72c4.8 3.24 8.28 5.76 10.56 7.32-1.67 4.44-3.7 8.4-5.87 11.76zm-1.92-22.8c1.33-3.6.97-7.68-1.55-10.8-3.6-4.44-9.6-5.76-14.64-2.88-5.4-4.8-11.15-10.2-17.5-16.44 18.35-9.96 31.43-9 32.75-9 .24.36.24.72.6.72 10.2 13.32 13.08 29.88 9 45.12-1.68-1.32-4.8-3.6-8.64-6.72z" stroke="#000" stroke-opacity="0" fill="#0078d7"/><use xlink:href="#h" transform="matrix(1,0,0,1,338.90731409451496,1621.1585785730572) translate(53.2 14.4)"/><use xlink:href="#i" transform="matrix(1,0,0,1,338.90731409451496,1621.1585785730572) translate(94.8 14.4)"/><path d="M489.37 1550h163.15" stroke="#3a414a" fill="none"/><path d="M489.38 1550.47h-.5v-.67l-.03-.27h.53z" stroke="#3a414a" stroke-width=".05" fill="#3a414a"/><path d="M667.3 1550l-14.28 4.63v-9.27z" stroke="#3a414a" fill="#3a414a"/><path d="M950.83 1484.44h120v120h-120v-120z" stroke="#fff" stroke-opacity="0" fill="#693cc5"/><path d="M1010.83 1528.36h-8c-.88 0-1.6.7-1.6 1.6v28.8c0 .9.72 1.6 1.6 1.6h8c.9 0 1.6-.7 1.6-1.6v-28.8c0-.9-.7-1.6-1.6-1.6zm-1.6 28.8h-4.8v-25.6h4.8z" stroke="#fff" stroke-opacity="0" fill="#fff"/><path d="M1030.38 1536.4l-17.94-3.97-1.26-.24c-.5-.13-.96-.04-1.36.28-.4.32-.6.74-.6 1.25v21.3c0 .5.2.94.6 1.26.3.2.62.33 1 .33h.36l1.26-.3 17.94-3.96c.76-.17 1.28-.83 1.25-1.62v-12.78c0-.76-.5-1.4-1.25-1.57zm-1.95 13.1l-16 3.56v-17.42l16 3.58zM1050.83 1535.64v3.36c-5.48 1.55-10.3 2.2-16 2.16v-3.2c5.72.04 10.55-.66 16-2.32zM1050.83 1541.88v3.2c-5.6.65-10.37.9-16 .85v-3.2c5.63.06 10.4-.2 16-.85z" stroke="#fff" stroke-opacity="0" fill="#fff"/><path d="M1050.83 1543.9v3.2c-5.58-.83-10.35-1.17-16-1.16v-3.2c5.65 0 10.42.33 16 1.16zM1050.83 1549.8v3.44c-5.44-1.74-10.28-2.48-16-2.45v-3.2c5.7-.05 10.53.6 16 2.2zM998.03 1536.36v3.2c-10-.53-18.4-2.9-27.2-7.73v-3.74c7.05 4.6 16.46 7.37 27.2 8.26zM998.03 1542.73v3.2c-4.65-.2-9.92-.64-15.23-1.4-4.27-.6-7.83-1.33-11.97-2.5v-3.3c9.36 2.54 17.52 3.74 27.2 4z" stroke="#fff" stroke-opacity="0" fill="#fff"/><path d="M998.03 1543.13v3.2c-9.68.26-17.84 1.46-27.2 4v-3.3c4.16-1.18 7.73-1.9 12-2.48 5.27-.78 10.55-1.2 15.2-1.42zM998.03 1531.1v3.2c-22.05-2.58-27.05-13.88-27.05-23.5v-6.4h3.2v6.48c0 8.22 4.4 17.82 23.85 20.22zM998.03 1549.38v3.2c-10.74.9-20.13 3.75-27.2 8.32v-3.73c8.8-4.83 17.2-7.22 27.2-7.8zM998.03 1554.7v3.22c-12.4 1.52-23.85 6.58-23.85 20V1584.18l-1.33.1-1.86.16v-.15-5.17-1.22c0-9.5 4.96-20.63 27.03-23.2z" stroke="#fff" stroke-opacity="0" fill="#fff"/><use xlink:href="#l" transform="matrix(1,0,0,1,920.8333333333333,1613.4404687791655) translate(10.462962962962962 17.77777777777778)"/><use xlink:href="#m" transform="matrix(1,0,0,1,920.8333333333333,1613.4404687791655) translate(98.05555555555556 17.77777777777778)"/><use xlink:href="#n" transform="matrix(1,0,0,1,920.8333333333333,1613.4404687791655) translate(20.370370370370367 44.44444444444444)"/><use xlink:href="#o" transform="matrix(1,0,0,1,920.8333333333333,1613.4404687791655) translate(73.39506172839506 44.44444444444444)"/><path d="M1358 1357.58l57.98 8.62v5.08c0 7.55-25.98 13.65-58 13.65-32 0-57.98-6.1-57.98-13.65v-5.52z" fill="#8c3123"/><path d="M1358.02 1394.3c24.2 0 44.93-3.55 53.58-8.5l2.88-4.8 1.15-4.38v5.44l-19 81c0 5.07-17.3 9.1-38.6 9.1-21.33 0-38.6-4.03-38.6-9.1l-19.02-81v-5.35l4.38 9.28c8.76 4.87 29.27 8.3 53.24 8.3z" fill="#8c3123"/><path d="M1358 1352.16c32 0 58 6.12 58 13.62 0 7.5-26 13.57-58 13.57s-58-6-58-13.57c0-7.56 26-13.62 58-13.62z" fill="#e05243"/><path d="M1358 1388.77c29.84 0 54.4-5.22 57.62-12.07l-19.02 81c0 5.05-17.28 9.1-38.6 9.1-21.33 0-38.6-4.05-38.6-9.1l-19.03-81c3.23 6.85 27.78 12.07 57.62 12.07z" fill="#e05243"/><path d="M1344.35 1396.54h25.1v24.95h-25.1v-24.96zM1336.76 1430.33c6.83 0 12.38 5.5 12.38 12.3 0 6.8-5.55 12.3-12.38 12.3-6.84 0-12.4-5.5-12.4-12.3 0-6.8 5.56-12.3 12.4-12.3zM1388.8 1454.36H1364l12.4-22.94 12.4 22.94z" fill="#fff"/><use xlink:href="#j" transform="matrix(1,0,0,1,1300,1472.1585785730572) translate(9.234567901234563 17.77777777777778)"/><use xlink:href="#p" transform="matrix(1,0,0,1,1300,1472.1585785730572) translate(38.86419753086419 17.77777777777778)"/><g filter="url(#d)" stroke="#fff" stroke-opacity="0"><path d="M1282.28 1656.78h124.44v124.44h-124.44z" fill="#693cc5"/><path d="M1404.48 1659.02v119.96h-119.96v-119.96h119.96m4.52-4.52h-129v129h129v-129z" fill="#fff"/><path d="M1383.03 1738c-.23-.57-.76-.85-1.37-.85h-6.06V1697c0-2.97-2.43-5.32-5.3-5.32h-50c-2.88 0-5.3 2.35-5.3 5.32v40.15h-6.15c-.6 0-1.13.28-1.36.84-.24.5-.24 1 .14 1.5l5.76 7.57c.3.4.7.6 1.22.6h61.28c.53 0 .9-.2 1.2-.6l5.78-7.56c.38-.5.38-1 .15-1.5zm-65-41c0-1.3 1.06-2.3 2.28-2.3h49.9c1.22-.05 2.3.96 2.36 2.25V1737.15h-54.53zm57.1 47.83h-59.75l-3.5-4.6h66.75z" fill="#fff"/><path d="M1366.38 1703.24c-.04-.14-.13-.26-.25-.4v-.08c-.13-.14-.3-.26-.5-.34-.22-.1-.42-.1-.63-.1h-7.6v3h3.9l-14.25 14.06-6.63-4.95c-.63-.45-1.47-.4-1.97.15l-13.42 13.4-.05.03c-.58.6-.54 1.56.05 2.13.3.3.63.45 1.04.45.42 0 .8-.14 1.1-.45l12.5-12.47 6.58 4.95c.63.5 1.5.43 2.05-.13l15.2-15.02v3.96h3v-7.71c0-.18-.04-.32-.12-.46z" fill="#fff"/></g><path d="M1228.9 1806a6 6 0 0 1 6-6h228a6 6 0 0 1 6 6v48a6 6 0 0 1-6 6h-228a6 6 0 0 1-6-6z" fill="none"/><use xlink:href="#q" transform="matrix(1,0,0,1,1228.907314094515,1800) translate(13.888888888888886 34.44444444444444)"/><use xlink:href="#r" transform="matrix(1,0,0,1,1228.907314094515,1800) translate(101.48148148148148 34.44444444444444)"/><path d="M789.4 1544.44h145.05" stroke="#3a414a" fill="none"/><path d="M789.4 1544.9h-.5v-.94h.5z" stroke="#3a414a" stroke-width=".05" fill="#3a414a"/><path d="M949.2 1544.44l-14.25 4.64v-9.27z" stroke="#3a414a" fill="#3a414a"/><path d="M1071.33 1544.44h98.1a6 6 0 0 0 6-6v-110.28a6 6 0 0 1 6-6h112" stroke="#3a414a" fill="none"/><path d="M1071.35 1544.9h-.52v-.94h.52z" stroke="#3a414a" stroke-width=".05" fill="#3a414a"/><path d="M1308.2 1422.16l-14.27 4.63v-9.28z" stroke="#3a414a" fill="#3a414a"/><path d="M1071.33 1544.44h98.1a6 6 0 0 1 6 6V1713a6 6 0 0 0 6 6h82.2" stroke="#3a414a" fill="none"/><path d="M1071.35 1544.9h-.52v-.94h.52z" stroke="#3a414a" stroke-width=".05" fill="#3a414a"/><path d="M1278.38 1719l-14.26 4.63v-9.27z" stroke="#3a414a" fill="#3a414a"/><path d="M706.34-88.8l-12.4-3.45-11.72-13.33 13.08 1.07 11.04 15.7z" fill="#b8852e"/><path d="M706.35-88.8l8.86-18.53-8.28-1.17-11.63 4 11.05 15.7z" fill="#d9a741"/><path d="M677.68-97.58l-6.97-1.95-7.66-8.74 8.15 1.27 6.48 9.42z" fill="#b8852e"/><path d="M677.67-97.58l5-10.43-4.66-.68-6.82 1.68 6.5 9.42z" fill="#d9a741"/><path d="M660-108.02l7.14 1.48 34.86-30.3-34.86-33.87-7.14 3.6v59.08z" fill="#876929"/><path d="M694.64-164.74v55.63l-27.52 2.56v-64.17l27.52 5.96z" fill="#d9a741"/><path d="M675.9-104.65l12.23 2.45 33.7-39-33.7-40.1-12.22 6.17v70.48z" fill="#876929"/><path d="M757.85-159.23v48.1l-69.72 8.93v-79.1l69.72 22.07z" fill="#d9a741"/><path d="M745.22-77.34l-17.6-4.92-16.66-18.96 18.57 1.55 15.7 22.33z" fill="#b8852e"/><path d="M745.22-77.34l12.62-26.33-11.8-1.68-16.5 5.68 15.68 22.33z" fill="#d9a741"/><path d="M702-99.57l17.95 3.44 24.37-50.6-24.38-50.6-17.94 9.1v88.66z" fill="#876929"/><path d="M719.96-96.13L780-108.06v-59.3l-60.04-29.96v101.2z" fill="#d9a741"/><use xlink:href="#a" transform="matrix(1,0,0,1,660,-77.33333333333334) translate(19.29012345679012 17.77777777777778)"/><use xlink:href="#b" transform="matrix(1,0,0,1,660,-77.33333333333334) translate(37.19135802469136 44.44444444444444)"/><path d="M1080.33-281.12v56.28l49.5 24.84 49.5-24.84v-14.04l-42.07-5.28v-31.68l42.07-5.28v-14.04l-49.5-24.84-49.5 24.84v14.04z" fill="#876929"/><path d="M1080.35-238.92l49.47 14.9v24l-49.47-24.8v-14.1z" fill="#876929"/><path d="M1086.65-221.68l-6.32-3.15v-70.36l6.33-3.13v76.65z" fill="#876929"/><path d="M1137.25-244.15l-50.6 7.13V-283l50.6 7.17v31.68zM1179.33-281.08l-49.5-14.95V-320l49.5 24.87v14.05zM1179.3-238.9l-49.47 14.9v24l49.47-24.86v-14.04z" fill="#d9a741"/><path d="M1111.6-247.14l18.22 2.28v-30.43l-18.22 2.32v25.84zM1093.23-249.4l11.83 1.46v-24.18l-11.83 1.5v21.2z" fill="#876929"/><path d="M1086.66-283l43.18-13 49.48 14.9-42.07 5.25-50.6-7.16z" fill="#624a1e"/><path d="M1086.64-237.02l43.18 13.02 49.47-14.9-42.07-5.26-50.6 7.14z" fill="#fad791"/><path d="M1179.3-251.13l-49.47 6.27v-30.43l49.47 6.34v17.83z" fill="#d9a741"/><use xlink:href="#a" transform="matrix(1,0,0,1,1080.3333333333333,-200) translate(8.79012345679012 17.77777777777778)"/><use xlink:href="#c" transform="matrix(1,0,0,1,1080.3333333333333,-200) translate(26.043209876543216 44.44444444444444)"/><path d="M1080.33 1.55v56.28l49.5 24.84 49.5-24.84V43.8l-42.07-5.3V6.84l42.07-5.28V-12.5l-49.5-24.83-49.5 24.84V1.56z" fill="#876929"/><path d="M1080.35 43.75l49.47 14.9v24l-49.47-24.82V43.75z" fill="#876929"/><path d="M1086.65 60.98l-6.32-3.14v-70.36l6.33-3.14v76.64z" fill="#876929"/><path d="M1137.25 38.52l-50.6 7.13v-46l50.6 7.2V38.5zM1179.33 1.58l-49.5-14.94v-23.97l49.5 24.86V1.58zM1179.3 43.76l-49.47 14.9v24l49.47-24.86V43.76z" fill="#d9a741"/><path d="M1111.6 35.53l18.22 2.28V7.4l-18.22 2.3v25.85zM1093.23 33.25l11.83 1.48V10.55l-11.83 1.5v21.2z" fill="#876929"/><path d="M1086.66-.34l43.18-13 49.48 14.9-42.07 5.26-50.6-7.16z" fill="#624a1e"/><path d="M1086.64 45.64l43.18 13.03 49.47-14.9-42.07-5.26-50.6 7.14z" fill="#fad791"/><path d="M1179.3 31.54l-49.47 6.27V7.4l49.47 6.33v17.84z" fill="#d9a741"/><g><use xlink:href="#a" transform="matrix(1,0,0,1,1080.3333333333333,82.66666666666663) translate(8.79012345679012 17.77777777777778)"/><use xlink:href="#c" transform="matrix(1,0,0,1,1080.3333333333333,82.66666666666663) translate(26.043209876543216 44.44444444444444)"/></g><path d="M870.47-138.87l-.08 1-.25.98-.38.95-.54.86-.66.8-.77.65-.87.53-.93.4-1 .22-1 .08h-83.5v-.95h83.48l.88-.07.84-.2.8-.33.74-.45.66-.57.56-.65.46-.73.33-.8.2-.85.07-.88v-89.77h.95zm193.48-110.66h-42.53v-.94h42.53z" stroke="#3a414a" stroke-width=".05" fill="#3a414a"/><path d="M780.5-132.42h-.5v-.95h.5z" fill="#3a414a"/><path stroke="#3a414a" stroke-width=".05" fill="#3a414a"/><path d="M1078.7-250l-14.25 4.63v-9.26z" fill="#3a414a"/><path d="M1080.25-250l-16.28 5.3v-10.6zm-15.33 3.98l12.26-3.98-12.26-3.98z" stroke="#3a414a" stroke-width=".05" fill="#3a414a"/><g><use xlink:href="#s" transform="matrix(1,0,0,1,809.6213350081061,-271.3333333333333) translate(0 14.222222222222223)"/><use xlink:href="#t" transform="matrix(1,0,0,1,809.6213350081061,-271.3333333333333) translate(74.8641975308642 14.222222222222223)"/><use xlink:href="#u" transform="matrix(1,0,0,1,809.6213350081061,-271.3333333333333) translate(0 35.55555555555556)"/><use xlink:href="#v" transform="matrix(1,0,0,1,809.6213350081061,-271.3333333333333) translate(110.32098765432099 35.55555555555556)"/></g><path d="M1063.95 32.2v.94h-57.17v-.95zM865-133.3l1 .25.93.4.87.52.77.66.66.77.53.87.4.94.23 1 .07 1V11.32h-.95v-138.2l-.07-.9-.2-.83-.33-.8-.46-.74-.56-.66-.66-.56-.74-.45-.8-.35-.84-.2-.88-.07h-83.5v-.95h83.53z" stroke="#3a414a" stroke-width=".05" fill="#3a414a"/><path d="M780.5-132.42h-.5v-.95h.5z" fill="#3a414a"/><path stroke="#3a414a" stroke-width=".05" fill="#3a414a"/><path d="M1078.7 32.67l-14.25 4.63v-9.27z" fill="#3a414a"/><path d="M1080.25 32.67l-16.28 5.3v-10.6zm-15.33 3.98l12.26-3.98-12.26-4z" stroke="#3a414a" stroke-width=".05" fill="#3a414a"/><g><use xlink:href="#w" transform="matrix(1,0,0,1,794.9792033857733,11.333333333333293) translate(0 14.222222222222223)"/><use xlink:href="#x" transform="matrix(1,0,0,1,794.9792033857733,11.333333333333293) translate(74.8641975308642 14.222222222222223)"/><use xlink:href="#y" transform="matrix(1,0,0,1,794.9792033857733,11.333333333333293) translate(0 35.55555555555556)"/><use xlink:href="#z" transform="matrix(1,0,0,1,794.9792033857733,11.333333333333293) translate(110.32098765432099 35.55555555555556)"/></g><path d="M467.76-161.66c-11.88-15.6-29.88-23.52-47.64-23.52-12.72 0-25.8 4.1-36.6 12.37-26.28 20.4-31.44 57.83-11.04 84.1 11.76 15.6 29.52 23.53 47.64 23.53 12.72 0 25.68-4.08 36.48-12.36 26.04-20.05 31.2-57.84 11.16-84.13zm-47.88-15.96c12 0 23.76 4.1 33.24 12-7.92-1.2-20.64-.84-34.92 6.72-4.8-5.03-9.48-10.2-14.64-15.95 5.4-1.7 10.92-2.77 16.32-2.77zm-42.6 82.33c-12.72-18.12-12.36-41.88-.36-59.4-1.32 5.04-1.56 12.36 2.16 20.88-4.08 5.4-4.44 13.32 0 19.08.36.36.72.96 1.32 1.2-2.28 6.48-2.76 12.85-3.12 18.25zm5.4-66.36c1.92-1.9 3.48-3.6 5.64-5.03 2.88-2.28 5.76-3.84 9-5.4 3.48 6 8.52 12 13.92 17.76-4.8 3.13-9.48 7.33-14.64 12.72-.72.6-1.2 1.2-1.92 1.93-2.88-.72-5.76-.36-8.64.6-4.32-9.84-4.32-18.12-3.36-22.56zm69.24 78c-9.48 7.33-20.64 10.8-31.8 10.8-12 0-23.76-4.08-33.24-11.75-.36-5.78 0-14.3 3.48-23.78 2.52.24 4.8-.36 7.32-1.3 1.32 1.3 2.88 2.5 4.2 3.47 5.04 4.2 10.08 7.3 15.12 9.95-.24 2.52.36 5.03 2.04 7.3 3.48 4.45 10.08 5.3 14.64 1.94.84-.73 1.56-1.7 2.16-2.53 7.92 1.92 14.88 2.16 20.4 2.16-1.44.95-2.76 2.52-4.32 3.72zm11.4-12.36c-3.12.72-12.72 1.92-25.68-1.92-.36-1.56-.96-2.88-2.04-4.08-3.12-4.44-9.12-5.4-13.92-2.52-4.44-2.52-9.12-5.4-14.28-9.23-.96-.6-1.92-1.56-2.88-2.17 2.88-4.8 3.24-10.8.72-15.84.6-.72 1.2-1.3 1.92-2.03 4.8-4.45 9.12-8.17 13.56-11.05 6.72 6 13.32 11.75 20.04 16.8-1.56 3.84-1.56 8.28 1.32 11.52 3.72 5.03 10.68 5.64 15.84 2.16l.72-.72c4.8 3.24 8.28 5.77 10.56 7.32-1.68 4.45-3.72 8.4-5.88 11.77zm-1.92-22.8c1.32-3.6.96-7.68-1.56-10.8-3.6-4.44-9.6-5.75-14.64-2.88-5.4-4.8-11.16-10.2-17.52-16.44 18.36-9.96 31.44-9 32.76-9 .24.37.24.72.6.72 10.2 13.32 13.08 29.9 9 45.13-1.68-1.32-4.8-3.6-8.64-6.72z" stroke="#000" stroke-opacity="0" fill="#0078d7"/><g><use xlink:href="#h" transform="matrix(1,0,0,1,330,-56.17475476027607) translate(53.2 14.4)"/><use xlink:href="#i" transform="matrix(1,0,0,1,330,-56.17475476027607) translate(94.8 14.4)"/></g><path d="M480.46-127.33H643.6" stroke="#3a414a" fill="none"/><path d="M480.47-126.86h-.5v-.67l-.03-.28h.53z" stroke="#3a414a" stroke-width=".05" fill="#3a414a"/><path d="M658.38-127.33l-14.26 4.63v-9.27z" stroke="#3a414a" fill="#3a414a"/><defs><path fill="#3a414a" d="M205 0l-28-72H64L36 0H1l101-248h38L239 0h-34zm-38-99l-47-123c-12 45-31 82-46 123h93" id="A"/><path fill="#3a414a" d="M210-169c-67 3-38 105-44 169h-31v-121c0-29-5-50-35-48C34-165 62-65 56 0H25l-1-190h30c1 10-1 24 2 32 10-44 99-50 107 0 11-21 27-35 58-36 85-2 47 119 55 194h-31v-121c0-29-5-49-35-48" id="B"/><path fill="#3a414a" d="M141-36C126-15 110 5 73 4 37 3 15-17 15-53c-1-64 63-63 125-63 3-35-9-54-41-54-24 1-41 7-42 31l-33-3c5-37 33-52 76-52 45 0 72 20 72 64v82c-1 20 7 32 28 27v20c-31 9-61-2-59-35zM48-53c0 20 12 33 32 33 41-3 63-29 60-74-43 2-92-5-92 41" id="C"/><path fill="#3a414a" d="M9 0v-24l116-142H16v-24h144v24L44-24h123V0H9" id="D"/><path fill="#3a414a" d="M100-194c62-1 85 37 85 99 1 63-27 99-86 99S16-35 15-95c0-66 28-99 85-99zM99-20c44 1 53-31 53-75 0-43-8-75-51-75s-53 32-53 75 10 74 51 75" id="E"/><path fill="#3a414a" d="M117-194c89-4 53 116 60 194h-32v-121c0-31-8-49-39-48C34-167 62-67 57 0H25l-1-190h30c1 10-1 24 2 32 11-22 29-35 61-36" id="F"/><g id="a"><use transform="matrix(0.06172839506172839,0,0,0.06172839506172839,0,0)" xlink:href="#A"/><use transform="matrix(0.06172839506172839,0,0,0.06172839506172839,14.814814814814813,0)" xlink:href="#B"/><use transform="matrix(0.06172839506172839,0,0,0.06172839506172839,33.2716049382716,0)" xlink:href="#C"/><use transform="matrix(0.06172839506172839,0,0,0.06172839506172839,45.61728395061728,0)" xlink:href="#D"/><use transform="matrix(0.06172839506172839,0,0,0.06172839506172839,56.72839506172839,0)" xlink:href="#E"/><use transform="matrix(0.06172839506172839,0,0,0.06172839506172839,69.07407407407408,0)" xlink:href="#F"/></g><path fill="#3a414a" d="M185-189c-5-48-123-54-124 2 14 75 158 14 163 119 3 78-121 87-175 55-17-10-28-26-33-46l33-7c5 56 141 63 141-1 0-78-155-14-162-118-5-82 145-84 179-34 5 7 8 16 11 25" id="G"/><path fill="#3a414a" d="M190 0L58-211 59 0H30v-248h39L202-35l-2-213h31V0h-41" id="H"/><g id="b"><use transform="matrix(0.06172839506172839,0,0,0.06172839506172839,0,0)" xlink:href="#G"/><use transform="matrix(0.06172839506172839,0,0,0.06172839506172839,14.814814814814813,0)" xlink:href="#H"/><use transform="matrix(0.06172839506172839,0,0,0.06172839506172839,30.80246913580247,0)" xlink:href="#G"/></g><path fill="#3a414a" d="M140-251c81 0 123 46 123 126C263-53 228-8 163 1c7 30 30 48 69 40v23c-55 16-95-15-103-61C56-3 17-48 17-125c0-80 42-126 123-126zm0 227c63 0 89-41 89-101s-29-99-89-99c-61 0-89 39-89 99S79-25 140-24" id="I"/><g id="c"><use transform="matrix(0.06172839506172839,0,0,0.06172839506172839,0,0)" xlink:href="#G"/><use transform="matrix(0.06172839506172839,0,0,0.06172839506172839,14.814814814814813,0)" xlink:href="#I"/><use transform="matrix(0.06172839506172839,0,0,0.06172839506172839,32.09876543209876,0)" xlink:href="#G"/></g><filter id="d" filterUnits="objectBoundingBox" x="-.05" y="-.04" width="1.11" height="1.11"><feOffset result="offOut" in="SourceAlpha" dy="2"/><feGaussianBlur result="blurOut" in="offOut" stdDeviation="3.5"/><feColorMatrix result="colorOut" in="blurOut" values="0 0 0 0 0 0 0 0 0 0 0 0 0 0 0 0 0 0 0.5019607843137255 0"/><feBlend in="SourceGraphic" in2="colorOut"/></filter><path fill="#3a414a" d="M140-251c81 0 123 46 123 126C263-46 219 4 140 4 59 4 17-45 17-125s42-126 123-126zm0 227c63 0 89-41 89-101s-29-99-89-99c-61 0-89 39-89 99S79-25 140-24" id="J"/><path fill="#3a414a" d="M114-163C36-179 61-72 57 0H25l-1-190h30c1 12-1 29 2 39 6-27 23-49 58-41v29" id="K"/><path fill="#3a414a" d="M85-194c31 0 48 13 60 33l-1-100h32l1 261h-30c-2-10 0-23-3-31C134-8 116 4 85 4 32 4 16-35 15-94c0-66 23-100 70-100zm9 24c-40 0-46 34-46 75 0 40 6 74 45 74 42 0 51-32 51-76 0-42-9-74-50-73" id="L"/><path fill="#3a414a" d="M100-194c63 0 86 42 84 106H49c0 40 14 67 53 68 26 1 43-12 49-29l28 8c-11 28-37 45-77 45C44 4 14-33 15-96c1-61 26-98 85-98zm52 81c6-60-76-77-97-28-3 7-6 17-6 28h103" id="M"/><g id="e"><use transform="matrix(0.06172839506172839,0,0,0.06172839506172839,0,0)" xlink:href="#J"/><use transform="matrix(0.06172839506172839,0,0,0.06172839506172839,17.28395061728395,0)" xlink:href="#K"/><use transform="matrix(0.06172839506172839,0,0,0.06172839506172839,24.629629629629626,0)" xlink:href="#L"/><use transform="matrix(0.06172839506172839,0,0,0.06172839506172839,36.9753086419753,0)" xlink:href="#M"/><use transform="matrix(0.06172839506172839,0,0,0.06172839506172839,49.32098765432098,0)" xlink:href="#K"/></g><path fill="#3a414a" d="M30-248c87 1 191-15 191 75 0 78-77 80-158 76V0H30v-248zm33 125c57 0 124 11 124-50 0-59-68-47-124-48v98" id="N"/><path fill="#3a414a" d="M96-169c-40 0-48 33-48 73s9 75 48 75c24 0 41-14 43-38l32 2c-6 37-31 61-74 61-59 0-76-41-82-99-10-93 101-131 147-64 4 7 5 14 7 22l-32 3c-4-21-16-35-41-35" id="O"/><path fill="#3a414a" d="M135-143c-3-34-86-38-87 0 15 53 115 12 119 90S17 21 10-45l28-5c4 36 97 45 98 0-10-56-113-15-118-90-4-57 82-63 122-42 12 7 21 19 24 35" id="P"/><path fill="#3a414a" d="M24-231v-30h32v30H24zM24 0v-190h32V0H24" id="Q"/><path fill="#3a414a" d="M177-190C167-65 218 103 67 71c-23-6-38-20-44-43l32-5c15 47 100 32 89-28v-30C133-14 115 1 83 1 29 1 15-40 15-95c0-56 16-97 71-98 29-1 48 16 59 35 1-10 0-23 2-32h30zM94-22c36 0 50-32 50-73 0-42-14-75-50-75-39 0-46 34-46 75s6 73 46 73" id="R"/><g id="f"><use transform="matrix(0.06172839506172839,0,0,0.06172839506172839,0,0)" xlink:href="#N"/><use transform="matrix(0.06172839506172839,0,0,0.06172839506172839,14.814814814814813,0)" xlink:href="#K"/><use transform="matrix(0.06172839506172839,0,0,0.06172839506172839,22.160493827160494,0)" xlink:href="#E"/><use transform="matrix(0.06172839506172839,0,0,0.06172839506172839,34.50617283950617,0)" xlink:href="#O"/><use transform="matrix(0.06172839506172839,0,0,0.06172839506172839,45.61728395061728,0)" xlink:href="#M"/><use transform="matrix(0.06172839506172839,0,0,0.06172839506172839,57.962962962962955,0)" xlink:href="#P"/><use transform="matrix(0.06172839506172839,0,0,0.06172839506172839,69.07407407407406,0)" xlink:href="#P"/><use transform="matrix(0.06172839506172839,0,0,0.06172839506172839,80.18518518518518,0)" xlink:href="#Q"/><use transform="matrix(0.06172839506172839,0,0,0.06172839506172839,85.06172839506172,0)" xlink:href="#F"/><use transform="matrix(0.06172839506172839,0,0,0.06172839506172839,97.4074074074074,0)" xlink:href="#R"/></g><path fill="#3a414a" d="M63-220v92h138v28H63V0H30v-248h175v28H63" id="S"/><path fill="#3a414a" d="M84 4C-5 8 30-112 23-190h32v120c0 31 7 50 39 49 72-2 45-101 50-169h31l1 190h-30c-1-10 1-25-2-33-11 22-28 36-60 37" id="T"/><path fill="#3a414a" d="M24 0v-261h32V0H24" id="U"/><path fill="#3a414a" d="M101-234c-31-9-42 10-38 44h38v23H63V0H32v-167H5v-23h27c-7-52 17-82 69-68v24" id="V"/><path fill="#3a414a" d="M59-47c-2 24 18 29 38 22v24C64 9 27 4 27-40v-127H5v-23h24l9-43h21v43h35v23H59v120" id="W"/><g id="g"><use transform="matrix(0.06172839506172839,0,0,0.06172839506172839,0,0)" xlink:href="#S"/><use transform="matrix(0.06172839506172839,0,0,0.06172839506172839,13.518518518518517,0)" xlink:href="#T"/><use transform="matrix(0.06172839506172839,0,0,0.06172839506172839,25.864197530864196,0)" xlink:href="#U"/><use transform="matrix(0.06172839506172839,0,0,0.06172839506172839,30.74074074074074,0)" xlink:href="#V"/><use transform="matrix(0.06172839506172839,0,0,0.06172839506172839,36.91358024691358,0)" xlink:href="#Q"/><use transform="matrix(0.06172839506172839,0,0,0.06172839506172839,41.79012345679013,0)" xlink:href="#U"/><use transform="matrix(0.06172839506172839,0,0,0.06172839506172839,46.66666666666667,0)" xlink:href="#U"/><use transform="matrix(0.06172839506172839,0,0,0.06172839506172839,51.543209876543216,0)" xlink:href="#B"/><use transform="matrix(0.06172839506172839,0,0,0.06172839506172839,70,0)" xlink:href="#M"/><use transform="matrix(0.06172839506172839,0,0,0.06172839506172839,82.34567901234568,0)" xlink:href="#F"/><use transform="matrix(0.06172839506172839,0,0,0.06172839506172839,94.69135802469137,0)" xlink:href="#W"/></g><path d="M266 0h-40l-56-210L115 0H75L2-248h35L96-30l15-64 43-154h32l59 218 59-218h35" id="X"/><path d="M100-194c63 0 86 42 84 106H49c0 40 14 67 53 68 26 1 43-12 49-29l28 8c-11 28-37 45-77 45C44 4 14-33 15-96c1-61 26-98 85-98zm52 81c6-60-76-77-97-28-3 7-6 17-6 28h103" id="Y"/><path d="M115-194c53 0 69 39 70 98 0 66-23 100-70 100C84 3 66-7 56-30L54 0H23l1-261h32v101c10-23 28-34 59-34zm-8 174c40 0 45-34 45-75 0-40-5-75-45-74-42 0-51 32-51 76 0 43 10 73 51 73" id="Z"/><g id="h"><use transform="matrix(0.05,0,0,0.05,0,0)" xlink:href="#X"/><use transform="matrix(0.05,0,0,0.05,16.599999999999998,0)" xlink:href="#Y"/><use transform="matrix(0.05,0,0,0.05,26.599999999999994,0)" xlink:href="#Z"/></g><path d="M205 0l-28-72H64L36 0H1l101-248h38L239 0h-34zm-38-99l-47-123c-12 45-31 82-46 123h93" id="aa"/><path d="M115-194c55 1 70 41 70 98S169 2 115 4C84 4 66-9 55-30l1 105H24l-1-265h31l2 30c10-21 28-34 59-34zm-8 174c40 0 45-34 45-75s-6-73-45-74c-42 0-51 32-51 76 0 43 10 73 51 73" id="ab"/><g id="i"><use transform="matrix(0.05,0,0,0.05,0,0)" xlink:href="#aa"/><use transform="matrix(0.05,0,0,0.05,12,0)" xlink:href="#ab"/><use transform="matrix(0.05,0,0,0.05,22,0)" xlink:href="#ab"/></g><path fill="#3a414a" d="M126-127c33 6 58 20 58 59 0 88-139 92-164 29-3-8-5-16-6-25l32-3c6 27 21 44 54 44 32 0 52-15 52-46 0-38-36-46-79-43v-28c39 1 72-4 72-42 0-27-17-43-46-43-28 0-47 15-49 41l-32-3c6-42 35-63 81-64 48-1 79 21 79 65 0 36-21 52-52 59" id="ac"/><g id="j"><use transform="matrix(0.06172839506172839,0,0,0.06172839506172839,0,0)" xlink:href="#P"/><use transform="matrix(0.06172839506172839,0,0,0.06172839506172839,11.11111111111111,0)" xlink:href="#ac"/></g><path fill="#3a414a" d="M30 0v-248h187v28H63v79h144v27H63v87h162V0H30" id="ad"/><path fill="#3a414a" d="M108 0H70L1-190h34L89-25l56-165h34" id="ae"/><g id="k"><use transform="matrix(0.06172839506172839,0,0,0.06172839506172839,0,0)" xlink:href="#ad"/><use transform="matrix(0.06172839506172839,0,0,0.06172839506172839,14.814814814814813,0)" xlink:href="#ae"/><use transform="matrix(0.06172839506172839,0,0,0.06172839506172839,25.925925925925924,0)" xlink:href="#M"/><use transform="matrix(0.06172839506172839,0,0,0.06172839506172839,38.2716049382716,0)" xlink:href="#F"/><use transform="matrix(0.06172839506172839,0,0,0.06172839506172839,50.61728395061728,0)" xlink:href="#W"/></g><g id="l"><use transform="matrix(0.06172839506172839,0,0,0.06172839506172839,0,0)" xlink:href="#A"/><use transform="matrix(0.06172839506172839,0,0,0.06172839506172839,14.814814814814813,0)" xlink:href="#B"/><use transform="matrix(0.06172839506172839,0,0,0.06172839506172839,33.2716049382716,0)" xlink:href="#C"/><use transform="matrix(0.06172839506172839,0,0,0.06172839506172839,45.61728395061728,0)" xlink:href="#D"/><use transform="matrix(0.06172839506172839,0,0,0.06172839506172839,56.72839506172839,0)" xlink:href="#E"/><use transform="matrix(0.06172839506172839,0,0,0.06172839506172839,69.07407407407408,0)" xlink:href="#F"/></g><path fill="#3a414a" d="M194 0L95-120 63-95V0H30v-248h33v124l119-124h40L117-140 236 0h-42" id="af"/><g id="m"><use transform="matrix(0.06172839506172839,0,0,0.06172839506172839,0,0)" xlink:href="#af"/><use transform="matrix(0.06172839506172839,0,0,0.06172839506172839,14.814814814814813,0)" xlink:href="#Q"/><use transform="matrix(0.06172839506172839,0,0,0.06172839506172839,19.691358024691354,0)" xlink:href="#F"/><use transform="matrix(0.06172839506172839,0,0,0.06172839506172839,32.03703703703703,0)" xlink:href="#M"/><use transform="matrix(0.06172839506172839,0,0,0.06172839506172839,44.38271604938271,0)" xlink:href="#P"/><use transform="matrix(0.06172839506172839,0,0,0.06172839506172839,55.49382716049382,0)" xlink:href="#Q"/><use transform="matrix(0.06172839506172839,0,0,0.06172839506172839,60.37037037037037,0)" xlink:href="#P"/></g><path fill="#3a414a" d="M30-248c118-7 216 8 213 122C240-48 200 0 122 0H30v-248zM63-27c89 8 146-16 146-99s-60-101-146-95v194" id="ag"/><g id="n"><use transform="matrix(0.06172839506172839,0,0,0.06172839506172839,0,0)" xlink:href="#ag"/><use transform="matrix(0.06172839506172839,0,0,0.06172839506172839,15.987654320987653,0)" xlink:href="#C"/><use transform="matrix(0.06172839506172839,0,0,0.06172839506172839,28.333333333333332,0)" xlink:href="#W"/><use transform="matrix(0.06172839506172839,0,0,0.06172839506172839,34.50617283950617,0)" xlink:href="#C"/></g><path fill="#3a414a" d="M106-169C34-169 62-67 57 0H25v-261h32l-1 103c12-21 28-36 61-36 89 0 53 116 60 194h-32v-121c2-32-8-49-39-48" id="ah"/><g id="o"><use transform="matrix(0.06172839506172839,0,0,0.06172839506172839,0,0)" xlink:href="#S"/><use transform="matrix(0.06172839506172839,0,0,0.06172839506172839,13.518518518518517,0)" xlink:href="#Q"/><use transform="matrix(0.06172839506172839,0,0,0.06172839506172839,18.39506172839506,0)" xlink:href="#K"/><use transform="matrix(0.06172839506172839,0,0,0.06172839506172839,25.74074074074074,0)" xlink:href="#M"/><use transform="matrix(0.06172839506172839,0,0,0.06172839506172839,38.08641975308642,0)" xlink:href="#ah"/><use transform="matrix(0.06172839506172839,0,0,0.06172839506172839,50.432098765432094,0)" xlink:href="#E"/><use transform="matrix(0.06172839506172839,0,0,0.06172839506172839,62.77777777777777,0)" xlink:href="#P"/><use transform="matrix(0.06172839506172839,0,0,0.06172839506172839,73.88888888888889,0)" xlink:href="#M"/></g><path fill="#3a414a" d="M160-131c35 5 61 23 61 61C221 17 115-2 30 0v-248c76 3 177-17 177 60 0 33-19 50-47 57zm-97-11c50-1 110 9 110-42 0-47-63-36-110-37v79zm0 115c55-2 124 14 124-45 0-56-70-42-124-44v89" id="ai"/><path fill="#3a414a" d="M143 0L79-87 56-68V0H24v-261h32v163l83-92h37l-77 82L181 0h-38" id="aj"/><g id="p"><use transform="matrix(0.06172839506172839,0,0,0.06172839506172839,0,0)" xlink:href="#ai"/><use transform="matrix(0.06172839506172839,0,0,0.06172839506172839,14.814814814814813,0)" xlink:href="#T"/><use transform="matrix(0.06172839506172839,0,0,0.06172839506172839,27.160493827160494,0)" xlink:href="#O"/><use transform="matrix(0.06172839506172839,0,0,0.06172839506172839,38.27160493827161,0)" xlink:href="#aj"/><use transform="matrix(0.06172839506172839,0,0,0.06172839506172839,49.38271604938272,0)" xlink:href="#M"/><use transform="matrix(0.06172839506172839,0,0,0.06172839506172839,61.7283950617284,0)" xlink:href="#W"/></g><path fill="#3a414a" d="M141 0L90-78 38 0H4l68-98-65-92h35l48 74 47-74h35l-64 92 68 98h-35" id="ak"/><g id="q"><use transform="matrix(0.06172839506172839,0,0,0.06172839506172839,0,0)" xlink:href="#A"/><use transform="matrix(0.06172839506172839,0,0,0.06172839506172839,14.814814814814813,0)" xlink:href="#B"/><use transform="matrix(0.06172839506172839,0,0,0.06172839506172839,33.2716049382716,0)" xlink:href="#C"/><use transform="matrix(0.06172839506172839,0,0,0.06172839506172839,45.61728395061728,0)" xlink:href="#ak"/><use transform="matrix(0.06172839506172839,0,0,0.06172839506172839,56.72839506172839,0)" xlink:href="#E"/><use transform="matrix(0.06172839506172839,0,0,0.06172839506172839,69.07407407407408,0)" xlink:href="#F"/></g><path fill="#3a414a" d="M115-194c55 1 70 41 70 98S169 2 115 4C84 4 66-9 55-30l1 105H24l-1-265h31l2 30c10-21 28-34 59-34zm-8 174c40 0 45-34 45-75s-6-73-45-74c-42 0-51 32-51 76 0 43 10 73 51 73" id="al"/><g id="r"><use transform="matrix(0.06172839506172839,0,0,0.06172839506172839,0,0)" xlink:href="#J"/><use transform="matrix(0.06172839506172839,0,0,0.06172839506172839,17.28395061728395,0)" xlink:href="#al"/><use transform="matrix(0.06172839506172839,0,0,0.06172839506172839,29.629629629629626,0)" xlink:href="#M"/><use transform="matrix(0.06172839506172839,0,0,0.06172839506172839,41.9753086419753,0)" xlink:href="#F"/><use transform="matrix(0.06172839506172839,0,0,0.06172839506172839,54.32098765432098,0)" xlink:href="#G"/><use transform="matrix(0.06172839506172839,0,0,0.06172839506172839,69.1358024691358,0)" xlink:href="#M"/><use transform="matrix(0.06172839506172839,0,0,0.06172839506172839,81.48148148148148,0)" xlink:href="#C"/><use transform="matrix(0.06172839506172839,0,0,0.06172839506172839,93.82716049382717,0)" xlink:href="#K"/><use transform="matrix(0.06172839506172839,0,0,0.06172839506172839,101.17283950617285,0)" xlink:href="#O"/><use transform="matrix(0.06172839506172839,0,0,0.06172839506172839,112.28395061728396,0)" xlink:href="#ah"/></g><path fill="#333" d="M76-208v77h127v40H76V0H24v-248h183v40H76" id="am"/><path fill="#333" d="M25-224v-37h50v37H25zM25 0v-190h50V0H25" id="an"/><path fill="#333" d="M25 0v-261h50V0H25" id="ao"/><path fill="#333" d="M115-3C79 11 28 4 28-45v-112H4v-33h27l15-45h31v45h36v33H77v99c-1 23 16 31 38 25v30" id="ap"/><path fill="#333" d="M185-48c-13 30-37 53-82 52C43 2 14-33 14-96s30-98 90-98c62 0 83 45 84 108H66c0 31 8 55 39 56 18 0 30-7 34-22zm-45-69c5-46-57-63-70-21-2 6-4 13-4 21h74" id="aq"/><path fill="#333" d="M135-150c-39-12-60 13-60 57V0H25l-1-190h47c2 13-1 29 3 40 6-28 27-53 61-41v41" id="ar"/><path fill="#333" d="M135-194c87-1 58 113 63 194h-50c-7-57 23-157-34-157-59 0-34 97-39 157H25l-1-190h47c2 12-1 28 3 38 12-26 28-41 61-42" id="as"/><path fill="#333" d="M195-6C206 82 75 100 31 46c-4-6-6-13-8-21l49-6c3 16 16 24 34 25 40 0 42-37 40-79-11 22-30 35-61 35-53 0-70-43-70-97 0-56 18-96 73-97 30 0 46 14 59 34l2-30h47zm-90-29c32 0 41-27 41-63 0-35-9-62-40-62-32 0-39 29-40 63 0 36 9 62 39 62" id="at"/><g id="s"><use transform="matrix(0.04938271604938272,0,0,0.04938271604938272,0,0)" xlink:href="#am"/><use transform="matrix(0.04938271604938272,0,0,0.04938271604938272,10.814814814814815,0)" xlink:href="#an"/><use transform="matrix(0.04938271604938272,0,0,0.04938271604938272,15.753086419753087,0)" xlink:href="#ao"/><use transform="matrix(0.04938271604938272,0,0,0.04938271604938272,20.69135802469136,0)" xlink:href="#ap"/><use transform="matrix(0.04938271604938272,0,0,0.04938271604938272,26.567901234567902,0)" xlink:href="#aq"/><use transform="matrix(0.04938271604938272,0,0,0.04938271604938272,36.44444444444445,0)" xlink:href="#ar"/><use transform="matrix(0.04938271604938272,0,0,0.04938271604938272,43.35802469135803,0)" xlink:href="#an"/><use transform="matrix(0.04938271604938272,0,0,0.04938271604938272,48.296296296296305,0)" xlink:href="#as"/><use transform="matrix(0.04938271604938272,0,0,0.04938271604938272,59.111111111111114,0)" xlink:href="#at"/><path fill="#333" d="M-.9.95h76.65v1.87H-.9z"/></g><path fill="#333" d="M24-248c93 1 206-16 204 79-1 75-69 88-152 82V0H24v-248zm52 121c47 0 100 7 100-41 0-47-54-39-100-39v80" id="au"/><path fill="#333" d="M110-194c64 0 96 36 96 99 0 64-35 99-97 99-61 0-95-36-95-99 0-62 34-99 96-99zm-1 164c35 0 45-28 45-65 0-40-10-65-43-65-34 0-45 26-45 65 0 36 10 65 43 65" id="av"/><path fill="#333" d="M190-63c-7 42-38 67-86 67-59 0-84-38-90-98-12-110 154-137 174-36l-49 2c-2-19-15-32-35-32-30 0-35 28-38 64-6 74 65 87 74 30" id="aw"/><path fill="#333" d="M123 10C108 53 80 86 19 72V37c35 8 53-11 59-39L3-190h52l48 148c12-52 28-100 44-148h51" id="ax"/><g id="t"><use transform="matrix(0.04938271604938272,0,0,0.04938271604938272,0,0)" xlink:href="#au"/><use transform="matrix(0.04938271604938272,0,0,0.04938271604938272,11.851851851851853,0)" xlink:href="#av"/><use transform="matrix(0.04938271604938272,0,0,0.04938271604938272,22.666666666666668,0)" xlink:href="#ao"/><use transform="matrix(0.04938271604938272,0,0,0.04938271604938272,27.60493827160494,0)" xlink:href="#an"/><use transform="matrix(0.04938271604938272,0,0,0.04938271604938272,32.543209876543216,0)" xlink:href="#aw"/><use transform="matrix(0.04938271604938272,0,0,0.04938271604938272,42.41975308641976,0)" xlink:href="#ax"/><path fill="#333" d="M-.9.95H53.2v1.87H-.9z"/></g><path fill="#333" d="M88-194c31-1 46 15 58 34l-1-101h50l1 261h-48c-2-10 0-23-3-31C134-8 116 4 84 4 32 4 16-41 15-95c0-56 19-97 73-99zm17 164c33 0 40-30 41-66 1-37-9-64-41-64s-38 30-39 65c0 43 13 65 39 65" id="ay"/><path fill="#333" d="M169-182c-1-43-94-46-97-3 18 66 151 10 154 114 3 95-165 93-204 36-6-8-10-19-12-30l50-8c3 46 112 56 116 5-17-69-150-10-154-114-4-87 153-88 188-35 5 8 8 18 10 28" id="az"/><path fill="#333" d="M133-34C117-15 103 5 69 4 32 3 11-16 11-54c-1-60 55-63 116-61 1-26-3-47-28-47-18 1-26 9-28 27l-52-2c7-38 36-58 82-57s74 22 75 68l1 82c-1 14 12 18 25 15v27c-30 8-71 5-69-32zm-48 3c29 0 43-24 42-57-32 0-66-3-65 30 0 17 8 27 23 27" id="aA"/><path fill="#333" d="M85 4C-2 5 27-109 22-190h50c7 57-23 150 33 157 60-5 35-97 40-157h50l1 190h-47c-2-12 1-28-3-38-12 25-28 42-61 42" id="aB"/><path fill="#333" d="M137-138c1-29-70-34-71-4 15 46 118 7 119 86 1 83-164 76-172 9l43-7c4 19 20 25 44 25 33 8 57-30 24-41C81-84 22-81 20-136c-2-80 154-74 161-7" id="aC"/><path fill="#333" d="M35-132v-50h50v50H35zM35 0v-49h50V0H35" id="aD"/><g id="u"><use transform="matrix(0.04938271604938272,0,0,0.04938271604938272,0,0)" xlink:href="#av"/><use transform="matrix(0.04938271604938272,0,0,0.04938271604938272,10.814814814814815,0)" xlink:href="#ar"/><use transform="matrix(0.04938271604938272,0,0,0.04938271604938272,17.728395061728396,0)" xlink:href="#ay"/><use transform="matrix(0.04938271604938272,0,0,0.04938271604938272,28.543209876543205,0)" xlink:href="#aq"/><use transform="matrix(0.04938271604938272,0,0,0.04938271604938272,38.41975308641975,0)" xlink:href="#ar"/><use transform="matrix(0.04938271604938272,0,0,0.04938271604938272,45.333333333333336,0)" xlink:href="#az"/><use transform="matrix(0.04938271604938272,0,0,0.04938271604938272,57.18518518518519,0)" xlink:href="#ap"/><use transform="matrix(0.04938271604938272,0,0,0.04938271604938272,63.061728395061735,0)" xlink:href="#aA"/><use transform="matrix(0.04938271604938272,0,0,0.04938271604938272,72.93827160493828,0)" xlink:href="#ap"/><use transform="matrix(0.04938271604938272,0,0,0.04938271604938272,78.81481481481482,0)" xlink:href="#aB"/><use transform="matrix(0.04938271604938272,0,0,0.04938271604938272,89.62962962962963,0)" xlink:href="#aC"/><use transform="matrix(0.04938271604938272,0,0,0.04938271604938272,99.50617283950618,0)" xlink:href="#aD"/></g><path fill="#333" d="M142-158h-39l-4-90h48zm-75 0H28l-4-90h48" id="aE"/><path fill="#333" d="M135-194c52 0 70 43 70 98 0 56-19 99-73 100-30 1-46-15-58-35L72 0H24l1-261h50v104c11-23 29-37 60-37zM114-30c31 0 40-27 40-66 0-37-7-63-39-63s-41 28-41 65c0 36 8 64 40 64" id="aF"/><path fill="#333" d="M220-157c-53 9-28 100-34 157h-49v-107c1-27-5-49-29-50C55-147 81-57 75 0H25l-1-190h47c2 12-1 28 3 38 10-53 101-56 108 0 13-22 24-43 59-42 82 1 51 116 57 194h-49v-107c-1-25-5-48-29-50" id="aG"/><g id="v"><use transform="matrix(0.04938271604938272,0,0,0.04938271604938272,0,0)" xlink:href="#aE"/><use transform="matrix(0.04938271604938272,0,0,0.04938271604938272,8.395061728395062,0)" xlink:href="#aC"/><use transform="matrix(0.04938271604938272,0,0,0.04938271604938272,18.271604938271608,0)" xlink:href="#aB"/><use transform="matrix(0.04938271604938272,0,0,0.04938271604938272,29.08641975308642,0)" xlink:href="#aF"/><use transform="matrix(0.04938271604938272,0,0,0.04938271604938272,39.90123456790124,0)" xlink:href="#aG"/><use transform="matrix(0.04938271604938272,0,0,0.04938271604938272,55.70370370370371,0)" xlink:href="#an"/><use transform="matrix(0.04938271604938272,0,0,0.04938271604938272,60.64197530864198,0)" xlink:href="#ap"/><use transform="matrix(0.04938271604938272,0,0,0.04938271604938272,66.51851851851852,0)" xlink:href="#ap"/><use transform="matrix(0.04938271604938272,0,0,0.04938271604938272,72.39506172839506,0)" xlink:href="#aq"/><use transform="matrix(0.04938271604938272,0,0,0.04938271604938272,82.27160493827161,0)" xlink:href="#ay"/><use transform="matrix(0.04938271604938272,0,0,0.04938271604938272,93.08641975308642,0)" xlink:href="#aE"/></g><path fill="#3a414a" d="M76-208v77h127v40H76V0H24v-248h183v40H76" id="aH"/><path fill="#3a414a" d="M25-224v-37h50v37H25zM25 0v-190h50V0H25" id="aI"/><path fill="#3a414a" d="M25 0v-261h50V0H25" id="aJ"/><path fill="#3a414a" d="M115-3C79 11 28 4 28-45v-112H4v-33h27l15-45h31v45h36v33H77v99c-1 23 16 31 38 25v30" id="aK"/><path fill="#3a414a" d="M185-48c-13 30-37 53-82 52C43 2 14-33 14-96s30-98 90-98c62 0 83 45 84 108H66c0 31 8 55 39 56 18 0 30-7 34-22zm-45-69c5-46-57-63-70-21-2 6-4 13-4 21h74" id="aL"/><path fill="#3a414a" d="M135-150c-39-12-60 13-60 57V0H25l-1-190h47c2 13-1 29 3 40 6-28 27-53 61-41v41" id="aM"/><path fill="#3a414a" d="M135-194c87-1 58 113 63 194h-50c-7-57 23-157-34-157-59 0-34 97-39 157H25l-1-190h47c2 12-1 28 3 38 12-26 28-41 61-42" id="aN"/><path fill="#3a414a" d="M195-6C206 82 75 100 31 46c-4-6-6-13-8-21l49-6c3 16 16 24 34 25 40 0 42-37 40-79-11 22-30 35-61 35-53 0-70-43-70-97 0-56 18-96 73-97 30 0 46 14 59 34l2-30h47zm-90-29c32 0 41-27 41-63 0-35-9-62-40-62-32 0-39 29-40 63 0 36 9 62 39 62" id="aO"/><g id="w"><use transform="matrix(0.04938271604938272,0,0,0.04938271604938272,0,0)" xlink:href="#aH"/><use transform="matrix(0.04938271604938272,0,0,0.04938271604938272,10.814814814814815,0)" xlink:href="#aI"/><use transform="matrix(0.04938271604938272,0,0,0.04938271604938272,15.753086419753087,0)" xlink:href="#aJ"/><use transform="matrix(0.04938271604938272,0,0,0.04938271604938272,20.69135802469136,0)" xlink:href="#aK"/><use transform="matrix(0.04938271604938272,0,0,0.04938271604938272,26.567901234567902,0)" xlink:href="#aL"/><use transform="matrix(0.04938271604938272,0,0,0.04938271604938272,36.44444444444445,0)" xlink:href="#aM"/><use transform="matrix(0.04938271604938272,0,0,0.04938271604938272,43.35802469135803,0)" xlink:href="#aI"/><use transform="matrix(0.04938271604938272,0,0,0.04938271604938272,48.296296296296305,0)" xlink:href="#aN"/><use transform="matrix(0.04938271604938272,0,0,0.04938271604938272,59.111111111111114,0)" xlink:href="#aO"/><path fill="#3a414a" d="M-.9.95h76.65v1.87H-.9z"/></g><path fill="#3a414a" d="M24-248c93 1 206-16 204 79-1 75-69 88-152 82V0H24v-248zm52 121c47 0 100 7 100-41 0-47-54-39-100-39v80" id="aP"/><path fill="#3a414a" d="M110-194c64 0 96 36 96 99 0 64-35 99-97 99-61 0-95-36-95-99 0-62 34-99 96-99zm-1 164c35 0 45-28 45-65 0-40-10-65-43-65-34 0-45 26-45 65 0 36 10 65 43 65" id="aQ"/><path fill="#3a414a" d="M190-63c-7 42-38 67-86 67-59 0-84-38-90-98-12-110 154-137 174-36l-49 2c-2-19-15-32-35-32-30 0-35 28-38 64-6 74 65 87 74 30" id="aR"/><path fill="#3a414a" d="M123 10C108 53 80 86 19 72V37c35 8 53-11 59-39L3-190h52l48 148c12-52 28-100 44-148h51" id="aS"/><g id="x"><use transform="matrix(0.04938271604938272,0,0,0.04938271604938272,0,0)" xlink:href="#aP"/><use transform="matrix(0.04938271604938272,0,0,0.04938271604938272,11.851851851851853,0)" xlink:href="#aQ"/><use transform="matrix(0.04938271604938272,0,0,0.04938271604938272,22.666666666666668,0)" xlink:href="#aJ"/><use transform="matrix(0.04938271604938272,0,0,0.04938271604938272,27.60493827160494,0)" xlink:href="#aI"/><use transform="matrix(0.04938271604938272,0,0,0.04938271604938272,32.543209876543216,0)" xlink:href="#aR"/><use transform="matrix(0.04938271604938272,0,0,0.04938271604938272,42.41975308641976,0)" xlink:href="#aS"/><path fill="#3a414a" d="M-.9.95H53.2v1.87H-.9z"/></g><path fill="#3a414a" d="M88-194c31-1 46 15 58 34l-1-101h50l1 261h-48c-2-10 0-23-3-31C134-8 116 4 84 4 32 4 16-41 15-95c0-56 19-97 73-99zm17 164c33 0 40-30 41-66 1-37-9-64-41-64s-38 30-39 65c0 43 13 65 39 65" id="aT"/><path fill="#3a414a" d="M169-182c-1-43-94-46-97-3 18 66 151 10 154 114 3 95-165 93-204 36-6-8-10-19-12-30l50-8c3 46 112 56 116 5-17-69-150-10-154-114-4-87 153-88 188-35 5 8 8 18 10 28" id="aU"/><path fill="#3a414a" d="M133-34C117-15 103 5 69 4 32 3 11-16 11-54c-1-60 55-63 116-61 1-26-3-47-28-47-18 1-26 9-28 27l-52-2c7-38 36-58 82-57s74 22 75 68l1 82c-1 14 12 18 25 15v27c-30 8-71 5-69-32zm-48 3c29 0 43-24 42-57-32 0-66-3-65 30 0 17 8 27 23 27" id="aV"/><path fill="#3a414a" d="M85 4C-2 5 27-109 22-190h50c7 57-23 150 33 157 60-5 35-97 40-157h50l1 190h-47c-2-12 1-28-3-38-12 25-28 42-61 42" id="aW"/><path fill="#3a414a" d="M137-138c1-29-70-34-71-4 15 46 118 7 119 86 1 83-164 76-172 9l43-7c4 19 20 25 44 25 33 8 57-30 24-41C81-84 22-81 20-136c-2-80 154-74 161-7" id="aX"/><path fill="#3a414a" d="M35-132v-50h50v50H35zM35 0v-49h50V0H35" id="aY"/><g id="y"><use transform="matrix(0.04938271604938272,0,0,0.04938271604938272,0,0)" xlink:href="#aQ"/><use transform="matrix(0.04938271604938272,0,0,0.04938271604938272,10.814814814814815,0)" xlink:href="#aM"/><use transform="matrix(0.04938271604938272,0,0,0.04938271604938272,17.728395061728396,0)" xlink:href="#aT"/><use transform="matrix(0.04938271604938272,0,0,0.04938271604938272,28.543209876543205,0)" xlink:href="#aL"/><use transform="matrix(0.04938271604938272,0,0,0.04938271604938272,38.41975308641975,0)" xlink:href="#aM"/><use transform="matrix(0.04938271604938272,0,0,0.04938271604938272,45.333333333333336,0)" xlink:href="#aU"/><use transform="matrix(0.04938271604938272,0,0,0.04938271604938272,57.18518518518519,0)" xlink:href="#aK"/><use transform="matrix(0.04938271604938272,0,0,0.04938271604938272,63.061728395061735,0)" xlink:href="#aV"/><use transform="matrix(0.04938271604938272,0,0,0.04938271604938272,72.93827160493828,0)" xlink:href="#aK"/><use transform="matrix(0.04938271604938272,0,0,0.04938271604938272,78.81481481481482,0)" xlink:href="#aW"/><use transform="matrix(0.04938271604938272,0,0,0.04938271604938272,89.62962962962963,0)" xlink:href="#aX"/><use transform="matrix(0.04938271604938272,0,0,0.04938271604938272,99.50617283950618,0)" xlink:href="#aY"/></g><path fill="#3a414a" d="M142-158h-39l-4-90h48zm-75 0H28l-4-90h48" id="aZ"/><path fill="#3a414a" d="M135-194c52 0 70 43 70 98 0 56-19 99-73 100-30 1-46-15-58-35L72 0H24l1-261h50v104c11-23 29-37 60-37zM114-30c31 0 40-27 40-66 0-37-7-63-39-63s-41 28-41 65c0 36 8 64 40 64" id="ba"/><path fill="#3a414a" d="M220-157c-53 9-28 100-34 157h-49v-107c1-27-5-49-29-50C55-147 81-57 75 0H25l-1-190h47c2 12-1 28 3 38 10-53 101-56 108 0 13-22 24-43 59-42 82 1 51 116 57 194h-49v-107c-1-25-5-48-29-50" id="bb"/><g id="z"><use transform="matrix(0.04938271604938272,0,0,0.04938271604938272,0,0)" xlink:href="#aZ"/><use transform="matrix(0.04938271604938272,0,0,0.04938271604938272,8.395061728395062,0)" xlink:href="#aX"/><use transform="matrix(0.04938271604938272,0,0,0.04938271604938272,18.271604938271608,0)" xlink:href="#aW"/><use transform="matrix(0.04938271604938272,0,0,0.04938271604938272,29.08641975308642,0)" xlink:href="#ba"/><use transform="matrix(0.04938271604938272,0,0,0.04938271604938272,39.90123456790124,0)" xlink:href="#bb"/><use transform="matrix(0.04938271604938272,0,0,0.04938271604938272,55.70370370370371,0)" xlink:href="#aI"/><use transform="matrix(0.04938271604938272,0,0,0.04938271604938272,60.64197530864198,0)" xlink:href="#aK"/><use transform="matrix(0.04938271604938272,0,0,0.04938271604938272,66.51851851851852,0)" xlink:href="#aK"/><use transform="matrix(0.04938271604938272,0,0,0.04938271604938272,72.39506172839506,0)" xlink:href="#aL"/><use transform="matrix(0.04938271604938272,0,0,0.04938271604938272,82.27160493827161,0)" xlink:href="#aT"/><use transform="matrix(0.04938271604938272,0,0,0.04938271604938272,93.08641975308642,0)" xlink:href="#aZ"/></g></defs></g></svg>